<?xml version="1.0" encoding="utf-8"?>
<!-- Generator: Adobe Illustrator 16.0.0, SVG Export Plug-In . SVG Version: 6.00 Build 0)  -->
<!DOCTYPE svg PUBLIC "-//W3C//DTD SVG 1.1//EN" "http://www.w3.org/Graphics/SVG/1.1/DTD/svg11.dtd">
<svg version="1.1" id="Capa_1" xmlns="http://www.w3.org/2000/svg" xmlns:xlink="http://www.w3.org/1999/xlink" x="0px" y="0px"
	 width="612px" height="792px" viewBox="0 0 612 792" enable-background="new 0 0 612 792" xml:space="preserve">
<g>
	<g>
		<path fill="#897248" d="M552.774,139.355v218.316h19.741V159.097h19.742V396h-19.742v-18.587h-19.741V396h-19.742V208.452h-59.226
			V396h-19.742V238.064h-59.226V396h-19.742V267.677h-59.226V396h-19.742v19.742H612V139.355H552.774z M355.354,396h-19.741V287.419
			h19.741V396z M434.322,396h-19.741V257.807h19.741V396z M513.29,396h-19.741V228.193h19.741V396z"/>
	</g>
</g>
<g>
	<g>
		<path fill="#897248" d="M414.581,90v19.742h30.441c-47.943,67.063-115.471,115.776-192.138,140.167
			c-24.835-36.888-66.975-61.2-114.691-61.2C61.99,188.709,0,250.699,0,326.903c0,66.027,46.571,121.314,108.581,134.916v42.762
			H88.839v148.064c0,27.214,22.141,49.354,49.354,49.354c27.214,0,49.355-22.141,49.355-49.354V504.581h-19.742v-42.762
			c62.009-13.602,108.581-68.889,108.581-134.916c0-21.331-5.005-41.468-13.671-59.522c80.606-26.563,151.411-78.662,201.22-150.177
			v41.892h19.742V90H414.581z M167.807,652.646c0,16.326-13.287,29.612-29.613,29.612c-16.326,0-29.613-13.286-29.613-29.612
			V524.322h59.226V652.646z M128.323,504.581v-39.987c3.277,0.236,6.534,0.503,9.871,0.503s6.594-0.267,9.871-0.503v39.987H128.323z
			 M138.193,445.354c-65.316,0-118.452-53.135-118.452-118.451c0-65.316,53.136-118.452,118.452-118.452
			c38.566,0,72.789,18.607,94.426,47.232c-7.127,1.836-14.313,3.435-21.568,4.856c-18.064-19.811-43.995-32.347-72.858-32.347
			c-54.428,0-98.709,44.281-98.709,98.71c0,54.428,44.281,98.71,98.709,98.71c54.429,0,98.71-44.282,98.71-98.71
			c0-17.817-4.817-34.509-13.109-48.95c6.653-1.461,13.247-3.07,19.792-4.866c8.292,16.168,13.059,34.43,13.059,53.816
			C256.645,392.219,203.51,445.354,138.193,445.354z M203.036,281.951c8.884,12.773,14.125,28.251,14.125,44.953
			c0,43.541-35.427,78.968-78.968,78.968c-43.541,0-78.968-35.427-78.968-78.968c0-43.541,35.427-78.968,78.968-78.968
			c18.192,0,34.924,6.248,48.289,16.623c-15.893,2.043-32.012,3.119-48.289,3.119v19.742
			C160.146,287.419,181.784,285.455,203.036,281.951z"/>
	</g>
</g>
<g>
	<g>
		<rect x="355.354" y="465.097" fill="#897248" width="217.161" height="19.742"/>
	</g>
</g>
<g>
	<g>
		<rect x="355.354" y="583.549" fill="#897248" width="217.161" height="19.741"/>
	</g>
</g>
<g>
	<g>
		<rect x="355.354" y="524.322" fill="#897248" width="98.71" height="19.742"/>
	</g>
</g>
<g>
	<g>
		<rect x="473.807" y="524.322" fill="#897248" width="98.709" height="19.742"/>
	</g>
</g>
<g>
	<g>
		<rect x="355.354" y="642.774" fill="#897248" width="98.71" height="19.742"/>
	</g>
</g>
<g>
	<g>
		<rect x="473.807" y="642.774" fill="#897248" width="98.709" height="19.742"/>
	</g>
</g>
<g>
	<g>
		<rect x="315.871" y="465.097" fill="#897248" width="19.742" height="19.742"/>
	</g>
</g>
<g>
	<g>
		<rect x="315.871" y="524.322" fill="#897248" width="19.742" height="19.742"/>
	</g>
</g>
<g>
	<g>
		<rect x="315.871" y="583.549" fill="#897248" width="19.742" height="19.741"/>
	</g>
</g>
<g>
	<g>
		<rect x="315.871" y="642.774" fill="#897248" width="19.742" height="19.742"/>
	</g>
</g>
</svg>
