<?xml version="1.0" encoding="utf-8"?>
<!-- Generator: Adobe Illustrator 16.0.0, SVG Export Plug-In . SVG Version: 6.00 Build 0)  -->
<!DOCTYPE svg PUBLIC "-//W3C//DTD SVG 1.1//EN" "http://www.w3.org/Graphics/SVG/1.1/DTD/svg11.dtd">
<svg version="1.1" id="Layer_1" xmlns="http://www.w3.org/2000/svg" xmlns:xlink="http://www.w3.org/1999/xlink" x="0px" y="0px"
	 width="612px" height="792px" viewBox="0 0 612 792" enable-background="new 0 0 612 792" xml:space="preserve">
<g>
	<g>
		<g>
			<path fill="#897248" d="M608.549,102.421c-0.651-5.264-4.797-9.409-10.059-10.06c-47.422-5.865-96.356-0.753-141.528,14.779
				c-45.178,15.534-86.914,41.599-120.694,75.379l-77.086,77.086l-111.272,14.351c-2.537,0.327-4.892,1.485-6.701,3.292
				L33.923,384.534c-3.037,3.037-4.141,7.508-2.865,11.61c1.272,4.103,4.716,7.16,8.939,7.942l81.118,15.024l15.939,15.939
				l-33.934,18.376c-3.211,1.738-5.414,4.892-5.939,8.506c-0.526,3.613,0.685,7.262,3.267,9.844L229.13,600.459
				c2.186,2.186,5.134,3.389,8.18,3.389c0.552,0,1.11-0.04,1.666-0.12c3.614-0.526,6.768-2.729,8.506-5.939l18.377-33.935
				l15.939,15.939l15.024,81.118c0.784,4.225,3.84,7.667,7.943,8.94c1.127,0.35,2.282,0.52,3.43,0.52
				c3.023,0,5.978-1.186,8.182-3.388l107.284-107.284c1.808-1.808,2.966-4.164,3.293-6.7l14.352-111.273l77.087-77.088
				c33.78-33.78,59.846-75.515,75.38-120.692C609.303,198.772,614.412,149.832,608.549,102.421z M122.878,395.915l-57.047-10.566
				l88.947-88.95l77.625-10.011L122.878,395.915z M234.523,573.14L127.77,466.388l26.349-14.269l94.671,94.673L234.523,573.14z
				 M404.511,546.132l-88.948,88.948l-10.567-57.045l109.526-109.526L404.511,546.132z M502.031,348.283L292.515,557.799
				L143.111,408.395l209.515-209.518c30.441-30.442,67.862-54.096,108.401-68.615c5.235,26.977,18.427,52.003,38.022,71.598
				c19.595,19.596,44.619,32.787,71.598,38.024C556.127,280.419,532.472,317.841,502.031,348.283z M577.61,217.659
				c-23.446-3.999-45.257-15.211-62.203-32.156c-16.946-16.945-28.157-38.757-32.156-62.204
				c33.53-9.036,68.752-12.118,103.315-8.956C589.729,148.906,586.646,184.128,577.61,217.659z"/>
			<path fill="#897248" d="M341.34,260.332c-27.359,27.361-27.359,71.878,0,99.24c13.682,13.681,31.648,20.52,49.621,20.52
				c17.966,0,35.94-6.841,49.619-20.52h0.001c27.359-27.36,27.359-71.878-0.001-99.24
				C413.219,232.972,368.699,232.974,341.34,260.332z M424.223,343.212c-18.344,18.342-48.187,18.339-66.523,0
				c-18.343-18.34-18.343-48.183,0-66.524c9.168-9.17,21.215-13.754,33.26-13.754c12.047,0,24.092,4.585,33.261,13.754
				C442.562,295.029,442.562,324.872,424.223,343.212z"/>
			<path fill="#897248" d="M151.704,551.39c-4.519-4.518-11.841-4.518-16.359,0l-99.241,99.239c-4.517,4.518-4.517,11.842,0,16.357
				c2.26,2.258,5.221,3.388,8.18,3.388c2.96,0,5.921-1.129,8.18-3.388l99.24-99.24C156.22,563.23,156.22,555.906,151.704,551.39z"/>
			<path fill="#897248" d="M166.969,583.015l-44.711,44.712c-4.517,4.518-4.517,11.842,0,16.357c2.259,2.258,5.221,3.388,8.18,3.388
				s5.921-1.129,8.18-3.388l44.711-44.712c4.517-4.518,4.517-11.842,0-16.357C178.811,578.498,171.488,578.498,166.969,583.015z"/>
			<path fill="#897248" d="M106.605,648.172c-4.84,0-9.257,3.122-10.892,7.67c-1.663,4.624-0.116,9.934,3.726,12.979
				c3.928,3.115,9.664,3.285,13.77,0.409c4.38-3.069,6.157-8.961,4.07-13.918C115.563,651.033,111.195,648.172,106.605,648.172z"/>
			<path fill="#897248" d="M117.279,655.313C117.572,656.009,117.002,654.619,117.279,655.313L117.279,655.313z"/>
			<path fill="#897248" d="M73.89,676.097l-6.157,6.156c-4.519,4.518-4.519,11.842-0.001,16.358c2.259,2.258,5.219,3.389,8.18,3.389
				c2.959,0,5.92-1.129,8.178-3.387l6.157-6.157c4.519-4.517,4.519-11.841,0.001-16.356
				C85.731,671.584,78.405,671.579,73.89,676.097z"/>
			<path fill="#897248" d="M65.549,574.29c-4.519-4.517-11.841-4.517-16.358,0L4.479,619.002c-4.517,4.518-4.517,11.842,0,16.357
				c2.26,2.258,5.221,3.388,8.18,3.388c2.96,0,5.921-1.129,8.18-3.388l44.712-44.712C70.066,586.132,70.066,578.808,65.549,574.29z"
				/>
			<path fill="#897248" d="M84.01,569.852c4.693-1.18,8.216-5.27,8.705-10.082c0.479-4.711-2.111-9.329-6.317-11.454
				c-4.465-2.258-10.061-1.315-13.524,2.305c-3.709,3.875-4.244,9.91-1.314,14.396c-0.092-0.139-0.164-0.24,0.023,0.045
				c0.194,0.285,0.128,0.182,0.035,0.045C74.343,569.065,79.317,571.031,84.01,569.852z"/>
			<path fill="#897248" d="M113.922,542.277l6.155-6.156c4.517-4.518,4.517-11.842-0.001-16.357
				c-4.522-4.519-11.846-4.518-16.357,0.002l-6.155,6.156c-4.517,4.518-4.517,11.842,0.002,16.357
				c2.259,2.258,5.219,3.387,8.178,3.387C108.703,545.666,111.664,544.537,113.922,542.277z"/>
		</g>
	</g>
</g>
</svg>
