<?xml version="1.0" encoding="utf-8"?>
<!-- Generator: Adobe Illustrator 16.0.0, SVG Export Plug-In . SVG Version: 6.00 Build 0)  -->
<!DOCTYPE svg PUBLIC "-//W3C//DTD SVG 1.1//EN" "http://www.w3.org/Graphics/SVG/1.1/DTD/svg11.dtd">
<svg version="1.1" id="Layer_1" xmlns="http://www.w3.org/2000/svg" xmlns:xlink="http://www.w3.org/1999/xlink" x="0px" y="0px"
	 width="610px" height="610px" viewBox="0 0 610 610" enable-background="new 0 0 610 610" xml:space="preserve">
<path fill="#897248" d="M285.601,217.414c39.375,0,71.297-31.918,71.297-71.293s-31.922-71.297-71.297-71.297
	s-71.293,31.922-71.293,71.297C214.351,185.477,246.241,217.371,285.601,217.414z M285.601,97.299
	c26.963,0,48.821,21.859,48.821,48.822c0,26.962-21.858,48.817-48.821,48.817c-26.962,0-48.817-21.855-48.817-48.817
	C236.81,119.17,258.646,97.327,285.601,97.299z"/>
<path fill="#897248" d="M472.104,184.825h-30.342c-39.757,0-75.706,23.993-91.821,59.794c-14.979-8.538-31.926-13.025-49.165-13.009
	h-30.342c-17.157-0.016-34.025,4.429-48.946,12.884c-16.1-36.121-51.865-59.466-91.412-59.665H99.737
	c-55.072,0.059-99.696,44.682-99.758,99.75v95.704c0,6.212,5.033,11.237,11.237,11.237h159.466v35.547
	c0,6.212,5.026,11.238,11.238,11.238h207.363c6.204,0,11.237-5.026,11.237-11.238v-35.547h160.095
	c6.204,0,11.238-5.033,11.238-11.237v-95.704C571.792,229.51,527.173,184.887,472.104,184.825z M472.104,207.3
	c0.563,0,1.112,0.035,1.671,0.043l-13.56,58.17c-0.527,2.603-2.649,4.589-5.287,4.936c-0.152,0.008-0.348,0.008-0.453,0.012
	c-2.833-0.156-5.189-2.208-5.735-4.987l-13.485-57.894c2.153-0.184,4.323-0.277,6.512-0.281H472.104z M300.775,254.085
	c2.057,0,4.089,0.105,6.103,0.261l-18.464,60.169l-18.542-60.415c0.188,0,0.367-0.016,0.554-0.016H300.775z M130.071,207.3
	c0.765,0,1.522,0.027,2.283,0.047l-18.749,68.144l-18.714-68.027c1.6-0.098,3.215-0.164,4.838-0.164H130.071z M22.455,284.579
	c0.039-32.305,20.134-61.183,50.406-72.452l29.507,107.246v49.672H22.455V284.579z M124.843,369.045v-49.672l29.718-108.026
	c22.28,7.562,39.991,24.738,48.229,46.781c-20.474,18.847-32.122,45.403-32.114,73.232v37.686H124.843z M193.159,331.363
	c0.039-33.806,22.011-63.676,54.277-73.782l29.741,96.921v61.328h-84.018V331.363z M378.047,415.83h-78.395v-61.328l29.191-95.114
	c29.644,11.589,49.165,40.144,49.204,71.972V415.83z M368.576,258.283c7.886-20.786,24.142-37.307,44.803-45.532l13.478,57.824
	c2.006,8.877,8.077,16.287,16.389,19.998v78.48h-42.724v-37.693C400.533,303.609,388.948,277.122,368.576,258.283z M549.379,369.041
	h-83.658v-78.504c8.264-3.73,14.32-11.093,16.38-19.923l13.876-59.525c31.816,10.375,53.359,40.027,53.402,73.49V369.041z"/>
<path fill="#897248" d="M456.301,171.265c32.266,0.008,60.516-21.656,68.87-52.829c8.351-31.166-5.283-64.055-33.229-80.182V27.461
	c0-17.243-13.973-31.216-31.216-31.216S429.51,10.219,429.51,27.461v6.45c-31.606,12.818-49.707,46.23-43.176,79.706
	c6.532,33.479,35.859,57.644,69.967,57.644V171.265z M456.301,148.79c-20.368-0.023-38.583-12.674-45.735-31.743
	c9.014-1.526,17.816-4.113,26.233-7.699c10.434-4.452,20.06-10.617,28.469-18.246c7.96,8.92,20.392,19.553,37.311,24.68
	C495.969,135.679,477.263,149.02,456.301,148.79z M504.568,92.628c-11.151-4.627-19.385-12.65-24.431-18.741
	c2.561-3.785,4.858-7.737,6.884-11.831C496.476,69.705,502.734,80.61,504.568,92.628z M451.985,27.461c0-4.827,3.91-8.74,8.74-8.74
	c4.831,0,8.74,3.914,8.74,8.74v2.443c-4.339-0.819-8.748-1.233-13.165-1.237c-1.447,0-2.888,0.059-4.315,0.141V27.461z
	 M456.301,51.143c3.523,0.004,7.039,0.386,10.477,1.147c-15.284,30.564-43.354,39.75-59.025,42.504
	C410.425,69.989,431.348,51.178,456.301,51.143z"/>
<path fill="#897248" d="M114.9,171.265c39.227,0,70.548-31.228,71.297-71.086c0-0.07,0-0.144,0-0.214
	c0-39.375-31.918-71.293-71.297-71.293c-39.375,0-71.297,31.918-71.297,71.293C43.604,139.343,75.525,171.265,114.9,171.265z
	 M114.9,51.146c26.912,0.035,48.732,21.808,48.822,48.716c-0.57,27.447-22,48.931-48.822,48.931
	c-26.962,0-48.821-21.859-48.821-48.822C66.079,73.009,87.938,51.146,114.9,51.146z"/>
<path fill="#897248" d="M516.914,268.448h-21.227c-6.204,0-11.237,5.033-11.237,11.238c0,6.204,5.033,11.238,11.237,11.238h21.227
	c6.204,0,11.238-5.034,11.238-11.238C528.152,273.481,523.118,268.448,516.914,268.448z"/>
<path fill="#897248" d="M329.619,318.394c-6.204,0-11.238,5.034-11.238,11.237c0,6.205,5.034,11.238,11.238,11.238h21.227
	c6.204,0,11.238-5.033,11.238-11.238c0-6.203-5.034-11.237-11.238-11.237H329.619z"/>
<path fill="#897248" d="M179.783,275.94c0-6.204-5.034-11.238-11.238-11.238h-16.232c-6.205,0-11.238,5.034-11.238,11.238
	s5.033,11.238,11.238,11.238h16.232C174.749,287.178,179.783,282.144,179.783,275.94z"/>
</svg>
