<?xml version="1.0" encoding="utf-8"?>
<!-- Generator: Adobe Illustrator 16.0.0, SVG Export Plug-In . SVG Version: 6.00 Build 0)  -->
<!DOCTYPE svg PUBLIC "-//W3C//DTD SVG 1.1//EN" "http://www.w3.org/Graphics/SVG/1.1/DTD/svg11.dtd">
<svg version="1.1" id="Capa_1" xmlns="http://www.w3.org/2000/svg" xmlns:xlink="http://www.w3.org/1999/xlink" x="0px" y="0px"
	 width="612px" height="792px" viewBox="0 0 612 792" enable-background="new 0 0 612 792" xml:space="preserve">
<g>
	<g>
		<g>
			<path fill="#897248" d="M285.603,661.2h40.8c5.633,0,10.2-4.567,10.2-10.2s-4.567-10.2-10.2-10.2h-40.8
				c-5.633,0-10.2,4.567-10.2,10.2S279.97,661.2,285.603,661.2z"/>
			<path fill="#897248" d="M132.603,243c5.633,0,10.2-4.567,10.2-10.2v-61.2h326.399v81.6c0,5.633,4.567,10.2,10.2,10.2
				s10.2-4.567,10.2-10.2V130.8c0-18.36-23.542-40.8-51-40.8h-265.2c-28.152,0.033-50.967,22.848-51,51v91.8
				C122.402,238.433,126.97,243,132.603,243z M142.803,141c0-16.9,13.7-30.6,30.6-30.6h265.2c17.677,0,30.6,14.28,30.6,20.4v20.4
				H142.803V141L142.803,141z"/>
			<path fill="#897248" d="M479.402,538.8c-5.633,0-10.2,4.567-10.2,10.2v51H142.803v-40.8c0-5.633-4.567-10.2-10.2-10.2
				s-10.2,4.567-10.2,10.2V651c0.033,28.152,22.848,50.967,51,51h265.2c28.152-0.033,50.967-22.848,51-51V549
				C489.603,543.367,485.035,538.8,479.402,538.8z M469.202,651c0,16.9-13.699,30.6-30.6,30.6h-265.2c-16.9,0-30.6-13.699-30.6-30.6
				v-30.6h326.399V651z"/>
			<path fill="#897248" d="M285.603,120.6h-20.4c-5.633,0-10.2,4.567-10.2,10.2c0,5.633,4.567,10.2,10.2,10.2h20.4
				c5.633,0,10.2-4.567,10.2-10.2C295.803,125.167,291.235,120.6,285.603,120.6z"/>
			<path fill="#897248" d="M346.803,120.6h-20.4c-5.633,0-10.2,4.567-10.2,10.2c0,5.633,4.567,10.2,10.2,10.2h20.4
				c5.633,0,10.2-4.567,10.2-10.2C357.003,125.167,352.436,120.6,346.803,120.6z"/>
			<path fill="#897248" d="M609.656,287.482L609.656,287.482c-1.939-2.335-4.818-3.685-7.854-3.683H334.073l-5.202-35.078
				c-2.297-14.966-15.133-26.042-30.274-26.122h-43.595V243h43.595c5.061-0.004,9.359,3.704,10.098,8.711l35.639,240.566
				c2.297,14.967,15.133,26.042,30.273,26.123h25.072c5.526,15.863,22.867,24.242,38.729,18.717
				c8.768-3.055,15.662-9.947,18.717-18.717h44.554c5.633,15.934,23.117,24.283,39.049,18.649
				c15.933-5.635,24.284-23.117,18.649-39.05c-5.633-15.934-23.117-24.283-39.049-18.649c-8.715,3.08-15.569,9.937-18.649,18.649
				h-44.554c-5.527-15.863-22.867-24.243-38.729-18.717c-8.769,3.055-15.662,9.947-18.717,18.717h-25.072
				c-5.049-0.026-9.33-3.719-10.098-8.711l-3.243-21.889h209.936c4.902-0.004,9.11-3.495,10.017-8.313l30.601-163.2
				C612.385,292.903,611.592,289.822,609.656,287.482z M530.402,498c5.633,0,10.2,4.567,10.2,10.2s-4.567,10.2-10.2,10.2
				s-10.2-4.567-10.2-10.2S524.77,498,530.402,498z M428.402,498c5.633,0,10.2,4.567,10.2,10.2s-4.567,10.2-10.2,10.2
				s-10.2-4.567-10.2-10.2S422.77,498,428.402,498z M562.736,447H358.247l-21.145-142.8h252.46L562.736,447z"/>
			<path fill="#897248" d="M265.203,396c0-73.233-59.367-132.6-132.6-132.6S0.002,322.767,0.002,396s59.367,132.6,132.6,132.6
				C205.8,528.516,265.118,469.197,265.203,396z M20.402,396c0-61.966,50.234-112.2,112.2-112.2s112.2,50.234,112.2,112.2
				c0,61.966-50.234,112.2-112.2,112.2C70.667,508.127,20.475,457.936,20.402,396z"/>
			<path fill="#897248" d="M142.803,477.6v-11.648c21.778-5.604,34.889-27.804,29.284-49.582
				c-4.636-18.011-20.886-30.592-39.484-30.569c-11.267,0-20.4-9.133-20.4-20.4s9.133-20.4,20.4-20.4s20.4,9.133,20.4,20.4
				c0,5.633,4.567,10.2,10.2,10.2s10.2-4.567,10.2-10.2c-0.07-18.547-12.64-34.714-30.6-39.352V314.4c0-5.633-4.567-10.2-10.2-10.2
				s-10.2,4.567-10.2,10.2v11.648c-21.778,5.605-34.889,27.804-29.284,49.582c4.636,18.011,20.886,30.592,39.484,30.57
				c11.267,0,20.4,9.133,20.4,20.399c0,11.268-9.133,20.4-20.4,20.4s-20.4-9.133-20.4-20.4c0-5.633-4.567-10.199-10.2-10.199
				c-5.633,0-10.2,4.566-10.2,10.199c0.07,18.548,12.64,34.715,30.6,39.352V477.6c0,5.634,4.567,10.2,10.2,10.2
				S142.803,483.233,142.803,477.6z"/>
			<path fill="#897248" d="M367.202,334.8h142.801c5.633,0,10.199-4.567,10.199-10.2c0-5.633-4.566-10.2-10.199-10.2H367.202
				c-5.633,0-10.199,4.567-10.199,10.2C357.003,330.233,361.569,334.8,367.202,334.8z"/>
			<path fill="#897248" d="M540.603,334.8h20.4c5.633,0,10.199-4.567,10.199-10.2c0-5.633-4.566-10.2-10.199-10.2h-20.4
				c-5.633,0-10.2,4.567-10.2,10.2C530.402,330.233,534.97,334.8,540.603,334.8z"/>
		</g>
	</g>
</g>
</svg>
