<?xml version="1.0" encoding="utf-8"?>
<!-- Generator: Adobe Illustrator 16.0.0, SVG Export Plug-In . SVG Version: 6.00 Build 0)  -->
<!DOCTYPE svg PUBLIC "-//W3C//DTD SVG 1.1//EN" "http://www.w3.org/Graphics/SVG/1.1/DTD/svg11.dtd">
<svg version="1.1" id="Capa_1" xmlns="http://www.w3.org/2000/svg" xmlns:xlink="http://www.w3.org/1999/xlink" x="0px" y="0px"
	 width="612px" height="792px" viewBox="0 0 612 792" enable-background="new 0 0 612 792" xml:space="preserve">
<g>
	<g>
		<path fill="#897248" d="M550.96,410.931c5.408-8.019,8.568-17.671,8.568-28.049v-9.587c0-27.735-22.565-50.3-50.3-50.3
			c-13.839,0-26.39,5.619-35.493,14.694C450.181,267.634,383.891,217.032,306,217.032c-77.89,0-144.181,50.601-167.736,120.656
			c-9.104-9.075-21.653-14.694-35.492-14.694c-27.735,0-50.3,22.565-50.3,50.3v9.587c0,10.378,3.161,20.031,8.568,28.049
			C26.222,418.268,0,449.22,0,486.188v24.066c0,6.601,5.353,11.953,11.953,11.953h62.156c6.601,0,11.953-5.353,11.953-11.953
			s-5.353-11.953-11.953-11.953H23.906v-12.113c0-29.229,23.78-53.009,53.008-53.009h56.573
			c4.587,20.179,12.628,39.06,23.477,55.979L20.581,625.542c-17.464,17.465-17.464,45.883,0.001,63.349
			c8.733,8.733,20.202,13.099,31.673,13.099c11.472,0,22.943-4.366,31.676-13.099l75.189-75.189c4.667-4.668,4.667-12.236,0-16.905
			c-4.669-4.667-12.235-4.667-16.905,0l-75.188,75.189c-8.146,8.146-21.397,8.144-29.542,0.002c-8.144-8.146-8.144-21.397,0-29.543
			l133.883-133.882c32.473,38.085,80.777,62.282,134.632,62.282c84.063,0,154.613-58.941,172.513-137.664h56.572
			c29.229,0,53.009,23.779,53.009,53.008v12.113H475.734c-6.601,0-11.953,5.353-11.953,11.953s5.353,11.953,11.953,11.953h124.313
			c6.601,0,11.953-5.353,11.953-11.953v-24.066C612,449.22,585.778,418.268,550.96,410.931z M129.166,382.883
			c0,14.553-11.84,26.393-26.394,26.393c-14.554,0-26.394-11.84-26.394-26.393v-9.588c0-14.554,11.84-26.394,26.394-26.394
			c14.554,0,26.394,11.839,26.394,26.394V382.883z M306,546.938c-84.364,0-153-68.637-153-153s68.636-153,153-153
			c84.364,0,153,68.636,153,153S390.364,546.938,306,546.938z M535.621,382.883c0,14.553-11.84,26.393-26.395,26.393
			c-14.554,0-26.394-11.84-26.394-26.393v-9.588c0-14.554,11.84-26.394,26.394-26.394c14.555,0,26.395,11.839,26.395,26.394V382.883
			z"/>
	</g>
</g>
<g>
	<g>
		<path fill="#897248" d="M306,264.844c-71.183,0-129.094,57.911-129.094,129.094c0,36.947,15.606,70.314,40.566,93.868
			c0.427,0.462,0.885,0.896,1.387,1.291c22.981,21.063,53.584,33.936,87.141,33.936c33.556,0,64.159-12.874,87.141-33.936
			c0.502-0.394,0.96-0.829,1.387-1.291c24.96-23.554,40.566-56.921,40.566-93.868C435.094,322.756,377.184,264.844,306,264.844z
			 M306,499.126c-24.579,0-47.214-8.477-65.141-22.656c12.7-24.03,37.451-39.15,65.141-39.15s52.44,15.12,65.141,39.15
			C353.214,490.649,330.579,499.126,306,499.126z M280.811,388.225v-9.287c0-13.889,11.299-25.188,25.189-25.188
			s25.188,11.299,25.188,25.188v9.287c0,13.89-11.299,25.188-25.188,25.188S280.811,402.114,280.811,388.225z M388.626,458.962
			c-10.95-17.472-26.979-30.796-45.737-38.394c7.589-8.646,12.206-19.962,12.206-32.343v-9.286c0-27.07-22.024-49.095-49.095-49.095
			s-49.095,22.025-49.095,49.095v9.286c0,12.381,4.617,23.697,12.207,32.343c-18.759,7.599-34.786,20.922-45.737,38.394
			c-14.124-17.908-22.562-40.498-22.562-65.024c0-58,47.188-105.188,105.188-105.188s105.188,47.188,105.188,105.188
			C411.188,418.464,402.75,441.054,388.626,458.962z"/>
	</g>
</g>
<g>
	<g>
		<path fill="#897248" d="M191.095,564.825c-2.224-2.224-5.307-3.503-8.451-3.503c-3.144,0-6.228,1.279-8.451,3.503
			c-2.222,2.223-3.502,5.307-3.502,8.45s1.279,6.228,3.502,8.451c2.223,2.222,5.307,3.502,8.451,3.502
			c3.144,0,6.228-1.278,8.451-3.502c2.222-2.224,3.502-5.308,3.502-8.451S193.318,567.048,191.095,564.825z"/>
	</g>
</g>
<g>
	<g>
		<path fill="#897248" d="M306.242,90.011c-6.6,0-11.953,5.353-11.953,11.953v40.669c0,6.602,5.353,11.953,11.953,11.953
			c6.601,0,11.953-5.353,11.953-11.953v-40.669C318.195,95.363,312.843,90.011,306.242,90.011z"/>
	</g>
</g>
<g>
	<g>
		<path fill="#897248" d="M314.688,173.599c-2.222-2.224-5.295-3.502-8.449-3.502c-3.145,0-6.228,1.278-8.451,3.502
			c-2.223,2.224-3.502,5.307-3.502,8.451s1.278,6.228,3.502,8.45c2.224,2.223,5.306,3.503,8.451,3.503
			c3.155,0,6.228-1.279,8.449-3.503c2.224-2.222,3.504-5.306,3.504-8.45S316.913,175.822,314.688,173.599z"/>
	</g>
</g>
<g>
	<g>
		<path fill="#897248" d="M407.576,136.898c-4.669-4.667-12.235-4.667-16.905,0l-21.009,21.009c-4.667,4.668-4.667,12.237,0,16.905
			c2.336,2.333,5.394,3.501,8.453,3.501c3.061,0,6.118-1.168,8.452-3.501l21.009-21.009
			C412.244,149.136,412.244,141.567,407.576,136.898z"/>
	</g>
</g>
<g>
	<g>
		<path fill="#897248" d="M242.539,158.052l-21.211-21.211c-4.669-4.667-12.235-4.667-16.905,0c-4.667,4.667-4.667,12.236,0,16.905
			l21.212,21.211c2.334,2.333,5.394,3.501,8.452,3.501s6.118-1.168,8.452-3.501C247.206,170.289,247.206,162.72,242.539,158.052z"/>
	</g>
</g>
</svg>
